<svg width="16" height="16" viewBox="0 0 16 16" fill="none" xmlns="http://www.w3.org/2000/svg">
<path fill-rule="evenodd" clip-rule="evenodd" d="M12.32 6.35349C12.32 6.77967 11.7977 6.9907 11.4969 6.68607L5.33783 0.449426C6.17064 0.158355 7.06665 0 8 0C9.59126 0 11.074 0.460285 12.32 1.2538V6.35349ZM14.56 3.38822V6.35349C14.56 8.76852 11.6005 9.96432 9.8958 8.23812L3.27244 1.53133C1.28818 2.9737 0 5.30077 0 7.92593C0 9.61367 0.532448 11.1782 1.44 12.4636V9.51421C1.44 7.09919 4.39946 5.90338 6.1042 7.62959L12.7184 14.3271C14.7079 12.8853 16 10.5551 16 7.92593C16 6.23819 15.4676 4.67365 14.56 3.38822ZM4.50309 9.18163L10.6505 15.4065C9.82101 15.695 8.929 15.8519 8 15.8519C6.40874 15.8519 4.926 15.3916 3.68 14.5981V9.51421C3.68 9.08803 4.20226 8.877 4.50309 9.18163Z" fill="url(#paint0_radial_2084_32572)"/>
<path fill-rule="evenodd" clip-rule="evenodd" d="M12.32 6.35349C12.32 6.77967 11.7977 6.9907 11.4969 6.68607L5.33783 0.449426C6.17064 0.158355 7.06665 0 8 0C9.59126 0 11.074 0.460285 12.32 1.2538V6.35349ZM14.56 3.38822V6.35349C14.56 8.76852 11.6005 9.96432 9.8958 8.23812L3.27244 1.53133C1.28818 2.9737 0 5.30077 0 7.92593C0 9.61367 0.532448 11.1782 1.44 12.4636V9.51421C1.44 7.09919 4.39946 5.90338 6.1042 7.62959L12.7184 14.3271C14.7079 12.8853 16 10.5551 16 7.92593C16 6.23819 15.4676 4.67365 14.56 3.38822ZM4.50309 9.18163L10.6505 15.4065C9.82101 15.695 8.929 15.8519 8 15.8519C6.40874 15.8519 4.926 15.3916 3.68 14.5981V9.51421C3.68 9.08803 4.20226 8.877 4.50309 9.18163Z" fill="url(#paint1_linear_2084_32572)"/>
<path fill-rule="evenodd" clip-rule="evenodd" d="M12.32 6.35349C12.32 6.77967 11.7977 6.9907 11.4969 6.68607L5.33783 0.449426C6.17064 0.158355 7.06665 0 8 0C9.59126 0 11.074 0.460285 12.32 1.2538V6.35349ZM14.56 3.38822V6.35349C14.56 8.76852 11.6005 9.96432 9.8958 8.23812L3.27244 1.53133C1.28818 2.9737 0 5.30077 0 7.92593C0 9.61367 0.532448 11.1782 1.44 12.4636V9.51421C1.44 7.09919 4.39946 5.90338 6.1042 7.62959L12.7184 14.3271C14.7079 12.8853 16 10.5551 16 7.92593C16 6.23819 15.4676 4.67365 14.56 3.38822ZM4.50309 9.18163L10.6505 15.4065C9.82101 15.695 8.929 15.8519 8 15.8519C6.40874 15.8519 4.926 15.3916 3.68 14.5981V9.51421C3.68 9.08803 4.20226 8.877 4.50309 9.18163Z" fill="url(#paint2_linear_2084_32572)"/>
<defs>
<radialGradient id="paint0_radial_2084_32572" cx="0" cy="0" r="1" gradientTransform="matrix(-8 7.92593 -8 -7.92593 8 7.92593)" gradientUnits="userSpaceOnUse">
<stop offset="0.34" stop-color="#FF006A"/>
<stop offset="0.613333" stop-color="#E300BD"/>
<stop offset="0.766667" stop-color="#FF4CE1"/>
</radialGradient>
<linearGradient id="paint1_linear_2084_32572" x1="9.86667" y1="-0.528395" x2="8.03398" y2="15.8557" gradientUnits="userSpaceOnUse">
<stop offset="0.0851785" stop-color="#FFBA33"/>
<stop offset="0.553333" stop-color="#FF006A" stop-opacity="0"/>
</linearGradient>
<linearGradient id="paint2_linear_2084_32572" x1="8" y1="0" x2="8" y2="15.8519" gradientUnits="userSpaceOnUse">
<stop offset="0.546667" stop-opacity="0"/>
<stop offset="1" stop-opacity="0.6"/>
</linearGradient>
</defs>
</svg>
